# xmcd
#
# Track frame offsets: 
#        150
#        23375
#        47049
#        81025
#        96884
#        120811
#        144411
#        183551
#        205863
#        241755
#        278216
#        293486
#
# Disc length: 4215 seconds
#
# Revision: 0
# Processed by: cddbd v1.5.1PL0 Copyright (c) Steve Scherf et al.
# Submitted via: ExactAudioCopy v0.95a4
#
DISCID=9410750c
DTITLE=3rd Degree - Burning Alive
DYEAR=1900
DGENRE=Blues Rock
TTITLE0=Turning Your Love Away
TTITLE1=Moth To A Flame
TTITLE2=Worried Life Blues
TTITLE3=Prisoner Of Love
TTITLE4=Bus Driving Blues
TTITLE5=You Bring Me Up
TTITLE6=I Had A Dream
TTITLE7=Brown Sugar
TTITLE8=Stoop Down Baby
TTITLE9=Boogie Child/Messin With The Kid
TTITLE10=Sugar Mama
TTITLE11=Anything YOu Want Me To Do
EXTD=
EXTT0=
EXTT1=
EXTT2=
EXTT3=
EXTT4=
EXTT5=
EXTT6=
EXTT7=
EXTT8=
EXTT9=
EXTT10=
EXTT11=
PLAYORDER=
